<svg id="visual" viewBox="0 0 1440 900" width="1440" height="900" xmlns="http://www.w3.org/2000/svg" xmlns:xlink="http://www.w3.org/1999/xlink" version="1.1"><rect x="0" y="0" width="1440" height="900" fill="#001220"></rect><path d="M0 607L34.3 597.8C68.7 588.7 137.3 570.3 205.8 577.7C274.3 585 342.7 618 411.2 616.7C479.7 615.3 548.3 579.7 617 564.5C685.7 549.3 754.3 554.7 823 565.7C891.7 576.7 960.3 593.3 1028.8 610.2C1097.3 627 1165.7 644 1234.2 645.2C1302.7 646.3 1371.3 631.7 1405.7 624.3L1440 617L1440 901L1405.7 901C1371.3 901 1302.7 901 1234.2 901C1165.7 901 1097.3 901 1028.8 901C960.3 901 891.7 901 823 901C754.3 901 685.7 901 617 901C548.3 901 479.7 901 411.2 901C342.7 901 274.3 901 205.8 901C137.3 901 68.7 901 34.3 901L0 901Z" fill="#3ac3db"></path><path d="M0 607L34.3 613.8C68.7 620.7 137.3 634.3 205.8 643.8C274.3 653.3 342.7 658.7 411.2 662.5C479.7 666.3 548.3 668.7 617 675.2C685.7 681.7 754.3 692.3 823 687.8C891.7 683.3 960.3 663.7 1028.8 659.5C1097.3 655.3 1165.7 666.7 1234.2 678.2C1302.7 689.7 1371.3 701.3 1405.7 707.2L1440 713L1440 901L1405.7 901C1371.3 901 1302.7 901 1234.2 901C1165.7 901 1097.3 901 1028.8 901C960.3 901 891.7 901 823 901C754.3 901 685.7 901 617 901C548.3 901 479.7 901 411.2 901C342.7 901 274.3 901 205.8 901C137.3 901 68.7 901 34.3 901L0 901Z" fill="#00aae5"></path><path d="M0 741L34.3 735.3C68.7 729.7 137.3 718.3 205.8 717.5C274.3 716.7 342.7 726.3 411.2 735.5C479.7 744.7 548.3 753.3 617 748.8C685.7 744.3 754.3 726.7 823 710.5C891.7 694.3 960.3 679.7 1028.8 682.7C1097.3 685.7 1165.7 706.3 1234.2 713C1302.7 719.7 1371.3 712.3 1405.7 708.7L1440 705L1440 901L1405.7 901C1371.3 901 1302.7 901 1234.2 901C1165.7 901 1097.3 901 1028.8 901C960.3 901 891.7 901 823 901C754.3 901 685.7 901 617 901C548.3 901 479.7 901 411.2 901C342.7 901 274.3 901 205.8 901C137.3 901 68.7 901 34.3 901L0 901Z" fill="#008be5"></path><path d="M0 751L34.3 760C68.7 769 137.3 787 205.8 786.5C274.3 786 342.7 767 411.2 764.8C479.7 762.7 548.3 777.3 617 781.5C685.7 785.7 754.3 779.3 823 772.8C891.7 766.3 960.3 759.7 1028.8 752.8C1097.3 746 1165.7 739 1234.2 734.7C1302.7 730.3 1371.3 728.7 1405.7 727.8L1440 727L1440 901L1405.7 901C1371.3 901 1302.7 901 1234.2 901C1165.7 901 1097.3 901 1028.8 901C960.3 901 891.7 901 823 901C754.3 901 685.7 901 617 901C548.3 901 479.7 901 411.2 901C342.7 901 274.3 901 205.8 901C137.3 901 68.7 901 34.3 901L0 901Z" fill="#0067db"></path><path d="M0 843L34.3 836.8C68.7 830.7 137.3 818.3 205.8 821C274.3 823.7 342.7 841.3 411.2 847.2C479.7 853 548.3 847 617 843.2C685.7 839.3 754.3 837.7 823 831.7C891.7 825.7 960.3 815.3 1028.8 810.5C1097.3 805.7 1165.7 806.3 1234.2 806.7C1302.7 807 1371.3 807 1405.7 807L1440 807L1440 901L1405.7 901C1371.3 901 1302.7 901 1234.2 901C1165.7 901 1097.3 901 1028.8 901C960.3 901 891.7 901 823 901C754.3 901 685.7 901 617 901C548.3 901 479.7 901 411.2 901C342.7 901 274.3 901 205.8 901C137.3 901 68.7 901 34.3 901L0 901Z" fill="#243dc7"></path></svg>